# xmcd
#
# Track frame offsets: 
#        182
#        13755
#        27222
#        41220
#        55155
#        71072
#        82557
#        99590
#        113287
#        128782
#        141542
#        156817
#        172157
#        187015
#
# Disc length: 2654 seconds
#
# Revision: 0
# Processed by: cddbd v1.5.1PL2 Copyright (c) Steve Scherf et al.
# Submitted via: ExactAudioCopy v0.95b4
#
DISCID=bb0a5c0e
DTITLE=Shawn - Memories
DYEAR=1900
DGENRE=Country
TTITLE0=Fly Away
TTITLE1=Man With A Gun
TTITLE2=Memories
TTITLE3=Small Town Country Singer
TTITLE4=Nickle, Nickle
TTITLE5=Grandfather's Clock
TTITLE6=Tennesse Girl
TTITLE7=Springtime
TTITLE8=Heartbreak Hotel
TTITLE9=Dixie
TTITLE10=Elvis
TTITLE11=Birds
TTITLE12=Call On Me
TTITLE13=Stay With Me
EXTD=
EXTT0=
EXTT1=
EXTT2=
EXTT3=
EXTT4=
EXTT5=
EXTT6=
EXTT7=
EXTT8=
EXTT9=
EXTT10=
EXTT11=
EXTT12=
EXTT13=
PLAYORDER=
